<?xml version="1.0" encoding="iso-8859-1"?>
<!-- Generator: Adobe Illustrator 19.0.0, SVG Export Plug-In . SVG Version: 6.00 Build 0)  -->
<svg xmlns="http://www.w3.org/2000/svg" xmlns:xlink="http://www.w3.org/1999/xlink" version="1.1" id="Capa_1" x="0px" y="0px" viewBox="0 0 512 512" style="enable-background:new 0 0 512 512;" xml:space="preserve" width="512px" height="512px">
<g>
	<g>
		<path d="M497,124H367.456C360.378,68.8,313.094,26,256,26s-104.378,42.8-111.456,98H15c-8.284,0-15,6.716-15,15v332    c0,8.284,6.716,15,15,15h482c8.284,0,15-6.716,15-15V139C512,130.716,505.284,124,497,124z M256,56    c40.519,0,74.298,29.408,81.116,68H174.884C181.702,85.408,215.481,56,256,56z M482,456H30V154c43.379,0,407.061,0,452,0V456z" fill="#FFFFFF"/>
	</g>
</g>
<g>
	<g>
		<path d="M336,260h-35v-35c0-8.284-6.716-15-15-15h-60c-8.284,0-15,6.716-15,15v35h-35c-8.284,0-15,6.716-15,15v60    c0,8.284,6.716,15,15,15h35v35c0,8.284,6.716,15,15,15h60c8.284,0,15-6.716,15-15v-35h35c8.284,0,15-6.716,15-15v-60    C351,266.716,344.284,260,336,260z M321,320h-35c-8.284,0-15,6.716-15,15v35h-30v-35c0-8.284-6.716-15-15-15h-35v-30h35    c8.284,0,15-6.716,15-15v-35h30v35c0,8.284,6.716,15,15,15h35V320z" fill="#FFFFFF"/>
	</g>
</g>
<g>
</g>
<g>
</g>
<g>
</g>
<g>
</g>
<g>
</g>
<g>
</g>
<g>
</g>
<g>
</g>
<g>
</g>
<g>
</g>
<g>
</g>
<g>
</g>
<g>
</g>
<g>
</g>
<g>
</g>
</svg>
